<svg width="14" height="14" viewBox="0 0 14 14" fill="none" xmlns="http://www.w3.org/2000/svg">
<path d="M7 1C3.68629 1 1 3.68629 1 7H2C2 4.23858 4.23858 2 7 2V1ZM13 7C13 3.68629 10.3137 1 7 1V2C9.76142 2 12 4.23858 12 7H13ZM7 13C10.3137 13 13 10.3137 13 7H12C12 9.76142 9.76142 12 7 12V13ZM1 7C1 10.3137 3.68629 13 7 13V12C4.23858 12 2 9.76142 2 7H1ZM1 7C1 3.68629 3.68629 1 7 1V0C3.13401 0 0 3.13401 0 7H1ZM7 13C3.68629 13 1 10.3137 1 7H0C0 10.866 3.13401 14 7 14V13ZM13 7C13 10.3137 10.3137 13 7 13V14C10.866 14 14 10.866 14 7H13ZM7 1C10.3137 1 13 3.68629 13 7H14C14 3.13401 10.866 0 7 0V1Z" fill="#1B1B1B"/>
<path d="M9.35684 4.6431L4.6428 9.35715" stroke="#1B1B1B" stroke-linecap="round" stroke-linejoin="round"/>
<path d="M9.35696 9.35715L4.64291 4.6431" stroke="#1B1B1B" stroke-linecap="round" stroke-linejoin="round"/>
</svg>
