<svg width="24" height="24" viewBox="0 0 24 24" fill="none" xmlns="http://www.w3.org/2000/svg">
<path fill-rule="evenodd" clip-rule="evenodd" d="M5.10005 6.32279C5.10005 5.82574 5.50299 5.42279 6.00005 5.42279L14.1 5.42279C14.5971 5.42279 15 5.82574 15 6.32279C15 6.81985 14.5971 7.22279 14.1 7.22279L8.17284 7.22279L17.1 16.15L17.1 10.2228C17.1 9.72573 17.503 9.32279 18 9.32279C18.4971 9.32279 18.9 9.72574 18.9 10.2228L18.9 18.3228C18.9 18.8198 18.4971 19.2228 18 19.2228H9.90005C9.40299 19.2228 9.00005 18.8198 9.00005 18.3228C9.00005 17.8257 9.40299 17.4228 9.90005 17.4228L15.8273 17.4228L6.90005 8.49558L6.90005 14.4228C6.90005 14.9198 6.49711 15.3228 6.00005 15.3228C5.50299 15.3228 5.10005 14.9198 5.10005 14.4228L5.10005 6.32279Z" fill="black"/>
</svg>
