<svg width="14" height="15" viewBox="0 0 14 15" fill="#333"  xmlns="http://www.w3.org/2000/svg">
<path fill-rule="evenodd" clip-rule="evenodd" d="M12.9306 2.14286C13.2354 2.14286 13.4748 2.25108 13.6925 2.46753C13.9102 2.68398 14.019 2.92208 13.9973 3.22511V13.9177C13.9973 14.2208 13.8884 14.4589 13.6707 14.6753C13.453 14.8918 13.1918 15 12.9088 15H1.08843C0.783673 15 0.544217 14.8918 0.32653 14.6753C0.108843 14.4589 0 14.1991 0 13.9177V3.22511C0 2.92208 0.108843 2.68398 0.32653 2.46753C0.544217 2.25108 0.805441 2.14286 1.08843 2.14286H2.1551V1.34199C2.1551 0.974026 2.28571 0.649351 2.54694 0.38961C2.82993 0.12987 3.13469 0 3.50476 0H4.04898C4.41904 0 4.74557 0.12987 5.0068 0.38961C5.26802 0.670996 5.39863 0.974026 5.39863 1.34199V2.14286H8.6204V1.34199C8.6204 0.974026 8.75101 0.649351 9.01224 0.38961C9.29523 0.12987 9.59999 0 9.97006 0H10.5143C10.8843 0 11.2109 0.12987 11.4721 0.38961C11.7333 0.670996 11.8639 0.974026 11.8639 1.34199V2.14286H12.9306ZM10.7757 1.62337H9.70898V3.29004H10.7757V1.62337ZM3.26514 1.62337H4.3318V3.29004H3.26514V1.62337ZM1.10986 13.8961H12.9303V5.34631H1.10986V13.8961Z" />
<path d="M7.53187 8.91775H9.33867C9.40397 8.91775 9.46928 8.9394 9.51282 8.98269C9.55636 9.02598 9.57812 9.09091 9.57812 9.15585V9.67533C9.57812 9.74026 9.55636 9.8052 9.51282 9.87013C9.46928 9.93507 9.40397 9.93507 9.33867 9.93507H7.53187V11.7316C7.53187 11.7965 7.5101 11.8615 7.46656 11.9048C7.42302 11.9481 7.35772 11.9697 7.27064 11.9697H6.74819C6.68289 11.9697 6.61758 11.9481 6.55228 11.9048C6.48697 11.8615 6.48697 11.7965 6.48697 11.7316V9.93507H4.68017C4.61486 9.93507 4.54956 9.91342 4.48425 9.87013C4.41895 9.82684 4.41895 9.76191 4.41895 9.67533V9.15585C4.41895 9.09091 4.44071 9.02598 4.48425 8.98269C4.52779 8.9394 4.59309 8.91775 4.68017 8.91775H6.48697V7.12122C6.48697 7.05628 6.50874 6.99135 6.55228 6.92641C6.59581 6.86148 6.66112 6.86148 6.74819 6.86148H7.27064C7.33595 6.86148 7.40126 6.88312 7.46656 6.92641C7.53187 6.9697 7.53187 7.03464 7.53187 7.12122V8.91775Z" />
</svg>
