<?xml version="1.0" encoding="UTF-8"?>
<svg width="72px" height="72px" viewBox="0 0 72 72" version="1.1" xmlns="http://www.w3.org/2000/svg" xmlns:xlink="http://www.w3.org/1999/xlink">
    <title>3FBEFD7E-F0B3-4E55-BC13-27BCB2545694</title>
    <g id="final" stroke="none" stroke-width="1" fill="none" fill-rule="evenodd">
        <g id="bulk-files" transform="translate(-519.000000, -452.000000)">
            <g id="upload_icon" transform="translate(519.000000, 452.000000)">
                <rect x="0" y="0" width="72" height="72" rx="1.38888889"></rect>
                <g id="noun_Edit-documents_1245254" transform="translate(12.000000, 12.000000)" fill="#AAAAAA" fill-rule="nonzero">
                    <g id="Group">
                        <path d="M31.672,47.748 L3.038,47.748 C1.444,47.748 0.146,46.45 0.146,44.854 L0.146,3.146 C0.146,1.552 1.444,0.254 3.038,0.254 L31.672,0.254 C33.266,0.254 34.564,1.55 34.564,3.146 L34.564,20.176 C34.564,20.618 34.204,20.976 33.764,20.976 C33.324,20.976 32.964,20.618 32.964,20.176 L32.964,3.146 C32.964,2.434 32.386,1.854 31.672,1.854 L3.038,1.854 C2.326,1.854 1.746,2.434 1.746,3.146 L1.746,44.854 C1.746,45.566 2.326,46.146 3.038,46.146 L31.672,46.146 C32.384,46.146 32.964,45.566 32.964,44.854 L32.964,40.728 C32.964,40.286 33.324,39.928 33.764,39.928 C34.204,39.928 34.564,40.288 34.564,40.728 L34.564,44.854 C34.564,46.45 33.266,47.748 31.672,47.748 Z" id="Path"></path>
                        <path d="M28.606,8.128 L6.104,8.128 C5.662,8.128 5.304,7.77 5.304,7.328 C5.304,6.886 5.662,6.528 6.104,6.528 L28.606,6.528 C29.048,6.528 29.406,6.886 29.406,7.328 C29.406,7.77 29.046,8.128 28.606,8.128 Z" id="Path"></path>
                        <path d="M28.606,12.106 L6.104,12.106 C5.662,12.106 5.304,11.748 5.304,11.306 C5.304,10.864 5.662,10.506 6.104,10.506 L28.606,10.506 C29.048,10.506 29.406,10.864 29.406,11.306 C29.406,11.748 29.046,12.106 28.606,12.106 Z" id="Path"></path>
                        <path d="M28.606,16.084 L6.104,16.084 C5.662,16.084 5.304,15.726 5.304,15.284 C5.304,14.842 5.662,14.484 6.104,14.484 L28.606,14.484 C29.048,14.484 29.406,14.842 29.406,15.284 C29.406,15.726 29.046,16.084 28.606,16.084 Z" id="Path"></path>
                        <path d="M28.606,20.064 L6.104,20.064 C5.662,20.064 5.304,19.706 5.304,19.264 C5.304,18.822 5.662,18.464 6.104,18.464 L28.606,18.464 C29.048,18.464 29.406,18.822 29.406,19.264 C29.406,19.706 29.046,20.064 28.606,20.064 Z" id="Path"></path>
                        <path d="M28.606,24.042 L6.104,24.042 C5.662,24.042 5.304,23.684 5.304,23.242 C5.304,22.8 5.662,22.442 6.104,22.442 L28.606,22.442 C29.048,22.442 29.406,22.8 29.406,23.242 C29.406,23.684 29.046,24.042 28.606,24.042 Z" id="Path"></path>
                    </g>
                </g>
                <g id="noun_upload-document_582140" transform="translate(39.000000, 32.000000)" fill-rule="nonzero" stroke="#AAAAAA">
                    <path d="M13.0601143,25.688 C6.15428571,25.688 0.535542857,20.0699429 0.535542857,13.1641143 C0.535542857,12.6422857 0.567771429,12.1184 0.631542857,11.6068571 C1.40571429,5.35451429 6.74948571,0.639542857 13.0601143,0.639542857 C14.6742857,0.639542857 16.2466286,0.941942857 17.7325714,1.53988571 C22.5024,3.45851429 25.5846857,8.02125714 25.5846857,13.1648 C25.5853714,20.0699429 19.9659429,25.688 13.0601143,25.688 Z" id="Path" stroke-width="2" fill="#FFFFFF"></path>
                    <path d="M13.5469714,6.79862857 C13.4228571,6.67314286 13.2507429,6.59497143 13.0601143,6.59497143 C12.8736,6.59497143 12.7042286,6.6704 12.5808,6.79177143 C12.5787429,6.79382857 12.5766857,6.79382857 12.5746286,6.79588571 L7.40297143,11.9682286 C7.13485714,12.2363429 7.13485714,12.6697143 7.40297143,12.9378286 C7.67108571,13.2059429 8.10445714,13.2059429 8.37257143,12.9378286 L12.3744,8.93531429 L12.3744,19.7373714 C12.3744,20.1165714 12.6809143,20.4230857 13.0601143,20.4230857 C13.4393143,20.4230857 13.7458286,20.1165714 13.7458286,19.7373714 L13.7458286,8.93668571 L17.7469714,12.9378286 C17.8806857,13.0715429 18.0562286,13.1387429 18.2317714,13.1387429 C18.4073143,13.1387429 18.5828571,13.0715429 18.7165714,12.9378286 C18.9846857,12.6697143 18.9846857,12.2363429 18.7165714,11.9682286 L13.5469714,6.79862857 Z" id="Path" fill="#AAAAAA"></path>
                </g>
            </g>
        </g>
    </g>
</svg>